<mxfile host="app.diagrams.net" modified="2022-05-13T21:56:49.200Z" agent="5.0 (Windows NT 10.0; Win64; x64) AppleWebKit/537.36 (KHTML, like Gecko) Chrome/101.0.4951.54 Safari/537.36" etag="bnJv6X6bm96Xj3VdE200" version="18.0.3" type="github">
  <diagram id="uzs57NsXLBXiAyRszBQP" name="Page-1">
    <mxGraphModel dx="1185" dy="628" grid="1" gridSize="10" guides="1" tooltips="1" connect="1" arrows="1" fold="1" page="1" pageScale="1" pageWidth="1654" pageHeight="2336" math="0" shadow="0">
      <root>
        <mxCell id="0" />
        <mxCell id="1" parent="0" />
        <mxCell id="2RFHY5OYMMgToOVHw-5j-21" value="" style="rounded=0;whiteSpace=wrap;html=1;" vertex="1" parent="1">
          <mxGeometry x="947" y="440" width="120" height="60" as="geometry" />
        </mxCell>
        <mxCell id="2RFHY5OYMMgToOVHw-5j-17" value="" style="shape=parallelogram;perimeter=parallelogramPerimeter;whiteSpace=wrap;html=1;fixedSize=1;" vertex="1" parent="1">
          <mxGeometry x="737" y="850" width="120" height="60" as="geometry" />
        </mxCell>
        <mxCell id="2RFHY5OYMMgToOVHw-5j-14" value="" style="rhombus;whiteSpace=wrap;html=1;" vertex="1" parent="1">
          <mxGeometry x="757" y="430" width="80" height="80" as="geometry" />
        </mxCell>
        <mxCell id="2RFHY5OYMMgToOVHw-5j-2" value="" style="endArrow=classic;html=1;rounded=0;" edge="1" parent="1">
          <mxGeometry width="50" height="50" relative="1" as="geometry">
            <mxPoint x="797" y="230" as="sourcePoint" />
            <mxPoint x="797" y="280" as="targetPoint" />
          </mxGeometry>
        </mxCell>
        <mxCell id="2RFHY5OYMMgToOVHw-5j-3" value="" style="shape=parallelogram;perimeter=parallelogramPerimeter;whiteSpace=wrap;html=1;fixedSize=1;" vertex="1" parent="1">
          <mxGeometry x="747" y="290" width="120" height="60" as="geometry" />
        </mxCell>
        <mxCell id="2RFHY5OYMMgToOVHw-5j-4" value="" style="endArrow=classic;html=1;rounded=0;" edge="1" parent="1">
          <mxGeometry width="50" height="50" relative="1" as="geometry">
            <mxPoint x="797" y="370" as="sourcePoint" />
            <mxPoint x="797" y="420" as="targetPoint" />
          </mxGeometry>
        </mxCell>
        <mxCell id="2RFHY5OYMMgToOVHw-5j-6" value="" style="endArrow=classic;html=1;rounded=0;" edge="1" parent="1">
          <mxGeometry width="50" height="50" relative="1" as="geometry">
            <mxPoint x="796.5" y="520" as="sourcePoint" />
            <mxPoint x="796.5" y="570" as="targetPoint" />
          </mxGeometry>
        </mxCell>
        <mxCell id="2RFHY5OYMMgToOVHw-5j-7" value="Satın Al" style="text;html=1;strokeColor=none;fillColor=none;align=center;verticalAlign=middle;whiteSpace=wrap;rounded=0;" vertex="1" parent="1">
          <mxGeometry x="761" y="170" width="60" height="30" as="geometry" />
        </mxCell>
        <mxCell id="2RFHY5OYMMgToOVHw-5j-8" value="" style="ellipse;whiteSpace=wrap;html=1;" vertex="1" parent="1">
          <mxGeometry x="737" y="140" width="120" height="80" as="geometry" />
        </mxCell>
        <mxCell id="2RFHY5OYMMgToOVHw-5j-9" value="Başla&lt;br&gt;" style="text;html=1;strokeColor=none;fillColor=none;align=center;verticalAlign=middle;whiteSpace=wrap;rounded=0;" vertex="1" parent="1">
          <mxGeometry x="767" y="165" width="60" height="30" as="geometry" />
        </mxCell>
        <mxCell id="2RFHY5OYMMgToOVHw-5j-10" value="Hayır" style="text;html=1;strokeColor=none;fillColor=none;align=center;verticalAlign=middle;whiteSpace=wrap;rounded=0;" vertex="1" parent="1">
          <mxGeometry x="977" y="455" width="60" height="30" as="geometry" />
        </mxCell>
        <mxCell id="2RFHY5OYMMgToOVHw-5j-11" value="Kıyafetin Denenmesi" style="text;html=1;strokeColor=none;fillColor=none;align=center;verticalAlign=middle;whiteSpace=wrap;rounded=0;" vertex="1" parent="1">
          <mxGeometry x="761" y="865" width="60" height="30" as="geometry" />
        </mxCell>
        <mxCell id="2RFHY5OYMMgToOVHw-5j-12" value="Kişi Eşleştirme" style="text;html=1;strokeColor=none;fillColor=none;align=center;verticalAlign=middle;whiteSpace=wrap;rounded=0;" vertex="1" parent="1">
          <mxGeometry x="767" y="455" width="60" height="30" as="geometry" />
        </mxCell>
        <mxCell id="2RFHY5OYMMgToOVHw-5j-13" value="Kamera ile veri Doğrulama" style="text;html=1;strokeColor=none;fillColor=none;align=center;verticalAlign=middle;whiteSpace=wrap;rounded=0;" vertex="1" parent="1">
          <mxGeometry x="777" y="305" width="60" height="30" as="geometry" />
        </mxCell>
        <mxCell id="2RFHY5OYMMgToOVHw-5j-15" value="" style="shape=parallelogram;perimeter=parallelogramPerimeter;whiteSpace=wrap;html=1;fixedSize=1;" vertex="1" parent="1">
          <mxGeometry x="737" y="590" width="120" height="60" as="geometry" />
        </mxCell>
        <mxCell id="2RFHY5OYMMgToOVHw-5j-16" value="" style="shape=parallelogram;perimeter=parallelogramPerimeter;whiteSpace=wrap;html=1;fixedSize=1;" vertex="1" parent="1">
          <mxGeometry x="737" y="720" width="120" height="60" as="geometry" />
        </mxCell>
        <mxCell id="2RFHY5OYMMgToOVHw-5j-18" value="Kıyafet Kategorisinin Seçilmesi" style="text;html=1;strokeColor=none;fillColor=none;align=center;verticalAlign=middle;whiteSpace=wrap;rounded=0;" vertex="1" parent="1">
          <mxGeometry x="767" y="605" width="60" height="30" as="geometry" />
        </mxCell>
        <mxCell id="2RFHY5OYMMgToOVHw-5j-19" value="Kıyafetin Seçilmesi&lt;span style=&quot;color: rgba(0, 0, 0, 0); font-family: monospace; font-size: 0px; text-align: start;&quot;&gt;%3CmxGraphModel%3E%3Croot%3E%3CmxCell%20id%3D%220%22%2F%3E%3CmxCell%20id%3D%221%22%20parent%3D%220%22%2F%3E%3CmxCell%20id%3D%222%22%20value%3D%22Ki%C5%9Fi%20E%C5%9Fle%C5%9Ftirme%22%20style%3D%22text%3Bhtml%3D1%3BstrokeColor%3Dnone%3BfillColor%3Dnone%3Balign%3Dcenter%3BverticalAlign%3Dmiddle%3BwhiteSpace%3Dwrap%3Brounded%3D0%3B%22%20vertex%3D%221%22%20parent%3D%221%22%3E%3CmxGeometry%20x%3D%22360%22%20y%3D%22325%22%20width%3D%2260%22%20height%3D%2230%22%20as%3D%22geometry%22%2F%3E%3C%2FmxCell%3E%3C%2Froot%3E%3C%2FmxGraphModel%3E&lt;/span&gt;" style="text;html=1;strokeColor=none;fillColor=none;align=center;verticalAlign=middle;whiteSpace=wrap;rounded=0;" vertex="1" parent="1">
          <mxGeometry x="761" y="735" width="60" height="30" as="geometry" />
        </mxCell>
        <mxCell id="2RFHY5OYMMgToOVHw-5j-20" value="" style="endArrow=classic;html=1;rounded=0;" edge="1" parent="1">
          <mxGeometry width="50" height="50" relative="1" as="geometry">
            <mxPoint x="847" y="470" as="sourcePoint" />
            <mxPoint x="927" y="470" as="targetPoint" />
          </mxGeometry>
        </mxCell>
        <mxCell id="2RFHY5OYMMgToOVHw-5j-22" value="" style="endArrow=classic;html=1;rounded=0;" edge="1" parent="1">
          <mxGeometry width="50" height="50" relative="1" as="geometry">
            <mxPoint x="727" y="470" as="sourcePoint" />
            <mxPoint x="647" y="470" as="targetPoint" />
          </mxGeometry>
        </mxCell>
        <mxCell id="2RFHY5OYMMgToOVHw-5j-23" value="" style="rounded=0;whiteSpace=wrap;html=1;" vertex="1" parent="1">
          <mxGeometry x="497" y="440" width="120" height="60" as="geometry" />
        </mxCell>
        <mxCell id="2RFHY5OYMMgToOVHw-5j-24" value="Evet" style="text;html=1;strokeColor=none;fillColor=none;align=center;verticalAlign=middle;whiteSpace=wrap;rounded=0;" vertex="1" parent="1">
          <mxGeometry x="527" y="455" width="60" height="30" as="geometry" />
        </mxCell>
        <mxCell id="2RFHY5OYMMgToOVHw-5j-25" value="" style="endArrow=classic;html=1;rounded=0;" edge="1" parent="1">
          <mxGeometry width="50" height="50" relative="1" as="geometry">
            <mxPoint x="1007" y="250" as="sourcePoint" />
            <mxPoint x="856" y="250" as="targetPoint" />
          </mxGeometry>
        </mxCell>
        <mxCell id="2RFHY5OYMMgToOVHw-5j-26" value="" style="endArrow=none;html=1;rounded=0;" edge="1" parent="1">
          <mxGeometry width="50" height="50" relative="1" as="geometry">
            <mxPoint x="1007" y="420" as="sourcePoint" />
            <mxPoint x="1007" y="250" as="targetPoint" />
          </mxGeometry>
        </mxCell>
        <mxCell id="2RFHY5OYMMgToOVHw-5j-27" value="" style="shape=document;whiteSpace=wrap;html=1;boundedLbl=1;" vertex="1" parent="1">
          <mxGeometry x="497" y="580" width="120" height="80" as="geometry" />
        </mxCell>
        <mxCell id="2RFHY5OYMMgToOVHw-5j-28" value="" style="endArrow=classic;html=1;rounded=0;" edge="1" parent="1">
          <mxGeometry width="50" height="50" relative="1" as="geometry">
            <mxPoint x="557" y="510" as="sourcePoint" />
            <mxPoint x="557" y="560" as="targetPoint" />
          </mxGeometry>
        </mxCell>
        <mxCell id="2RFHY5OYMMgToOVHw-5j-29" value="Sisteme Giriş Yapılsın" style="text;html=1;strokeColor=none;fillColor=none;align=center;verticalAlign=middle;whiteSpace=wrap;rounded=0;" vertex="1" parent="1">
          <mxGeometry x="527" y="600" width="60" height="30" as="geometry" />
        </mxCell>
        <mxCell id="2RFHY5OYMMgToOVHw-5j-30" value="" style="endArrow=classic;html=1;rounded=0;" edge="1" parent="1">
          <mxGeometry width="50" height="50" relative="1" as="geometry">
            <mxPoint x="796.5" y="660" as="sourcePoint" />
            <mxPoint x="796.5" y="710" as="targetPoint" />
          </mxGeometry>
        </mxCell>
        <mxCell id="2RFHY5OYMMgToOVHw-5j-31" value="" style="endArrow=classic;html=1;rounded=0;" edge="1" parent="1">
          <mxGeometry width="50" height="50" relative="1" as="geometry">
            <mxPoint x="796.5" y="790" as="sourcePoint" />
            <mxPoint x="796.5" y="840" as="targetPoint" />
          </mxGeometry>
        </mxCell>
        <mxCell id="2RFHY5OYMMgToOVHw-5j-32" value="" style="rhombus;whiteSpace=wrap;html=1;" vertex="1" parent="1">
          <mxGeometry x="597" y="710" width="80" height="80" as="geometry" />
        </mxCell>
        <mxCell id="2RFHY5OYMMgToOVHw-5j-33" value="Kıyafetin Satın Alınması" style="text;html=1;strokeColor=none;fillColor=none;align=center;verticalAlign=middle;whiteSpace=wrap;rounded=0;" vertex="1" parent="1">
          <mxGeometry x="607" y="735" width="60" height="30" as="geometry" />
        </mxCell>
        <mxCell id="2RFHY5OYMMgToOVHw-5j-34" value="" style="endArrow=classic;html=1;rounded=0;" edge="1" parent="1">
          <mxGeometry width="50" height="50" relative="1" as="geometry">
            <mxPoint x="717" y="750" as="sourcePoint" />
            <mxPoint x="687" y="750" as="targetPoint" />
          </mxGeometry>
        </mxCell>
        <mxCell id="2RFHY5OYMMgToOVHw-5j-35" value="" style="endArrow=classic;html=1;rounded=0;" edge="1" parent="1">
          <mxGeometry width="50" height="50" relative="1" as="geometry">
            <mxPoint x="877" y="870" as="sourcePoint" />
            <mxPoint x="997" y="870" as="targetPoint" />
          </mxGeometry>
        </mxCell>
        <mxCell id="2RFHY5OYMMgToOVHw-5j-36" value="" style="rounded=0;whiteSpace=wrap;html=1;" vertex="1" parent="1">
          <mxGeometry x="1027" y="840" width="120" height="60" as="geometry" />
        </mxCell>
        <mxCell id="2RFHY5OYMMgToOVHw-5j-37" value="Beğenmedi" style="text;html=1;strokeColor=none;fillColor=none;align=center;verticalAlign=middle;whiteSpace=wrap;rounded=0;" vertex="1" parent="1">
          <mxGeometry x="1057" y="855" width="60" height="30" as="geometry" />
        </mxCell>
        <mxCell id="2RFHY5OYMMgToOVHw-5j-38" value="" style="endArrow=none;html=1;rounded=0;" edge="1" parent="1">
          <mxGeometry width="50" height="50" relative="1" as="geometry">
            <mxPoint x="1087" y="830" as="sourcePoint" />
            <mxPoint x="1087" y="690" as="targetPoint" />
          </mxGeometry>
        </mxCell>
        <mxCell id="2RFHY5OYMMgToOVHw-5j-39" value="" style="endArrow=classic;html=1;rounded=0;" edge="1" parent="1">
          <mxGeometry width="50" height="50" relative="1" as="geometry">
            <mxPoint x="1087" y="690" as="sourcePoint" />
            <mxPoint x="837" y="690" as="targetPoint" />
          </mxGeometry>
        </mxCell>
        <mxCell id="2RFHY5OYMMgToOVHw-5j-40" value="" style="rounded=0;whiteSpace=wrap;html=1;" vertex="1" parent="1">
          <mxGeometry x="527" y="855" width="120" height="60" as="geometry" />
        </mxCell>
        <mxCell id="2RFHY5OYMMgToOVHw-5j-41" value="" style="endArrow=classic;html=1;rounded=0;" edge="1" parent="1">
          <mxGeometry width="50" height="50" relative="1" as="geometry">
            <mxPoint x="727" y="890" as="sourcePoint" />
            <mxPoint x="667" y="890" as="targetPoint" />
          </mxGeometry>
        </mxCell>
        <mxCell id="2RFHY5OYMMgToOVHw-5j-42" value="Beğenildi" style="text;html=1;strokeColor=none;fillColor=none;align=center;verticalAlign=middle;whiteSpace=wrap;rounded=0;" vertex="1" parent="1">
          <mxGeometry x="557" y="870" width="60" height="30" as="geometry" />
        </mxCell>
        <mxCell id="2RFHY5OYMMgToOVHw-5j-43" value="" style="shape=parallelogram;perimeter=parallelogramPerimeter;whiteSpace=wrap;html=1;fixedSize=1;" vertex="1" parent="1">
          <mxGeometry x="527" y="970" width="120" height="60" as="geometry" />
        </mxCell>
        <mxCell id="2RFHY5OYMMgToOVHw-5j-44" value="Satın Al" style="text;html=1;strokeColor=none;fillColor=none;align=center;verticalAlign=middle;whiteSpace=wrap;rounded=0;" vertex="1" parent="1">
          <mxGeometry x="557" y="985" width="60" height="30" as="geometry" />
        </mxCell>
        <mxCell id="2RFHY5OYMMgToOVHw-5j-45" value="" style="shape=parallelogram;perimeter=parallelogramPerimeter;whiteSpace=wrap;html=1;fixedSize=1;" vertex="1" parent="1">
          <mxGeometry x="527" y="1090" width="120" height="60" as="geometry" />
        </mxCell>
        <mxCell id="2RFHY5OYMMgToOVHw-5j-46" value="Metamask&#39;a Giriş" style="text;html=1;strokeColor=none;fillColor=none;align=center;verticalAlign=middle;whiteSpace=wrap;rounded=0;" vertex="1" parent="1">
          <mxGeometry x="557" y="1105" width="60" height="30" as="geometry" />
        </mxCell>
        <mxCell id="2RFHY5OYMMgToOVHw-5j-47" value="" style="endArrow=classic;html=1;rounded=0;" edge="1" parent="1">
          <mxGeometry width="50" height="50" relative="1" as="geometry">
            <mxPoint x="587" y="920" as="sourcePoint" />
            <mxPoint x="587" y="960" as="targetPoint" />
          </mxGeometry>
        </mxCell>
        <mxCell id="2RFHY5OYMMgToOVHw-5j-48" value="" style="endArrow=classic;html=1;rounded=0;" edge="1" parent="1">
          <mxGeometry width="50" height="50" relative="1" as="geometry">
            <mxPoint x="586" y="1040" as="sourcePoint" />
            <mxPoint x="586" y="1080" as="targetPoint" />
          </mxGeometry>
        </mxCell>
        <mxCell id="2RFHY5OYMMgToOVHw-5j-49" value="" style="shape=parallelogram;perimeter=parallelogramPerimeter;whiteSpace=wrap;html=1;fixedSize=1;" vertex="1" parent="1">
          <mxGeometry x="527" y="1210" width="120" height="60" as="geometry" />
        </mxCell>
        <mxCell id="2RFHY5OYMMgToOVHw-5j-50" value="Verilerin Girişi" style="text;html=1;strokeColor=none;fillColor=none;align=center;verticalAlign=middle;whiteSpace=wrap;rounded=0;" vertex="1" parent="1">
          <mxGeometry x="557" y="1225" width="60" height="30" as="geometry" />
        </mxCell>
        <mxCell id="2RFHY5OYMMgToOVHw-5j-51" value="" style="endArrow=classic;html=1;rounded=0;" edge="1" parent="1">
          <mxGeometry width="50" height="50" relative="1" as="geometry">
            <mxPoint x="586" y="1160" as="sourcePoint" />
            <mxPoint x="586" y="1200" as="targetPoint" />
          </mxGeometry>
        </mxCell>
        <mxCell id="2RFHY5OYMMgToOVHw-5j-52" value="" style="rhombus;whiteSpace=wrap;html=1;" vertex="1" parent="1">
          <mxGeometry x="547" y="1330" width="80" height="80" as="geometry" />
        </mxCell>
        <mxCell id="2RFHY5OYMMgToOVHw-5j-53" value="Verilerin Doğrulaması" style="text;html=1;strokeColor=none;fillColor=none;align=center;verticalAlign=middle;whiteSpace=wrap;rounded=0;" vertex="1" parent="1">
          <mxGeometry x="557" y="1355" width="60" height="30" as="geometry" />
        </mxCell>
        <mxCell id="2RFHY5OYMMgToOVHw-5j-54" value="" style="endArrow=classic;html=1;rounded=0;" edge="1" parent="1">
          <mxGeometry width="50" height="50" relative="1" as="geometry">
            <mxPoint x="590" y="1290" as="sourcePoint" />
            <mxPoint x="590" y="1320" as="targetPoint" />
          </mxGeometry>
        </mxCell>
        <mxCell id="2RFHY5OYMMgToOVHw-5j-55" value="" style="rounded=0;whiteSpace=wrap;html=1;" vertex="1" parent="1">
          <mxGeometry x="340" y="1330" width="120" height="60" as="geometry" />
        </mxCell>
        <mxCell id="2RFHY5OYMMgToOVHw-5j-56" value="Doğrulandı" style="text;html=1;strokeColor=none;fillColor=none;align=center;verticalAlign=middle;whiteSpace=wrap;rounded=0;" vertex="1" parent="1">
          <mxGeometry x="370" y="1345" width="60" height="30" as="geometry" />
        </mxCell>
        <mxCell id="2RFHY5OYMMgToOVHw-5j-57" value="" style="rounded=0;whiteSpace=wrap;html=1;" vertex="1" parent="1">
          <mxGeometry x="780" y="1325" width="120" height="60" as="geometry" />
        </mxCell>
        <mxCell id="2RFHY5OYMMgToOVHw-5j-58" value="Doğrulanmadı" style="text;html=1;strokeColor=none;fillColor=none;align=center;verticalAlign=middle;whiteSpace=wrap;rounded=0;" vertex="1" parent="1">
          <mxGeometry x="810" y="1340" width="60" height="30" as="geometry" />
        </mxCell>
        <mxCell id="2RFHY5OYMMgToOVHw-5j-59" value="" style="endArrow=classic;html=1;rounded=0;" edge="1" parent="1">
          <mxGeometry width="50" height="50" relative="1" as="geometry">
            <mxPoint x="650" y="1360" as="sourcePoint" />
            <mxPoint x="750" y="1360" as="targetPoint" />
          </mxGeometry>
        </mxCell>
        <mxCell id="2RFHY5OYMMgToOVHw-5j-60" value="" style="endArrow=classic;html=1;rounded=0;" edge="1" parent="1">
          <mxGeometry width="50" height="50" relative="1" as="geometry">
            <mxPoint x="530" y="1360" as="sourcePoint" />
            <mxPoint x="470" y="1360" as="targetPoint" />
          </mxGeometry>
        </mxCell>
        <mxCell id="2RFHY5OYMMgToOVHw-5j-61" value="" style="endArrow=classic;html=1;rounded=0;" edge="1" parent="1">
          <mxGeometry width="50" height="50" relative="1" as="geometry">
            <mxPoint x="320" y="1360" as="sourcePoint" />
            <mxPoint x="190" y="1360" as="targetPoint" />
          </mxGeometry>
        </mxCell>
        <mxCell id="2RFHY5OYMMgToOVHw-5j-62" value="" style="shape=document;whiteSpace=wrap;html=1;boundedLbl=1;" vertex="1" parent="1">
          <mxGeometry x="50" y="1325" width="120" height="80" as="geometry" />
        </mxCell>
        <mxCell id="2RFHY5OYMMgToOVHw-5j-63" value="Ürün Satın Alındı" style="text;html=1;strokeColor=none;fillColor=none;align=center;verticalAlign=middle;whiteSpace=wrap;rounded=0;" vertex="1" parent="1">
          <mxGeometry x="65" y="1340" width="90" height="30" as="geometry" />
        </mxCell>
        <mxCell id="2RFHY5OYMMgToOVHw-5j-64" value="" style="endArrow=classic;html=1;rounded=0;" edge="1" parent="1">
          <mxGeometry width="50" height="50" relative="1" as="geometry">
            <mxPoint x="840" y="1180" as="sourcePoint" />
            <mxPoint x="610" y="1180" as="targetPoint" />
          </mxGeometry>
        </mxCell>
        <mxCell id="2RFHY5OYMMgToOVHw-5j-65" value="" style="endArrow=none;html=1;rounded=0;" edge="1" parent="1">
          <mxGeometry width="50" height="50" relative="1" as="geometry">
            <mxPoint x="840" y="1300" as="sourcePoint" />
            <mxPoint x="840" y="1180" as="targetPoint" />
          </mxGeometry>
        </mxCell>
        <mxCell id="2RFHY5OYMMgToOVHw-5j-68" value="" style="endArrow=classic;html=1;rounded=0;" edge="1" parent="1">
          <mxGeometry width="50" height="50" relative="1" as="geometry">
            <mxPoint x="400" y="1120" as="sourcePoint" />
            <mxPoint x="510" y="1120" as="targetPoint" />
          </mxGeometry>
        </mxCell>
        <mxCell id="2RFHY5OYMMgToOVHw-5j-69" value="" style="endArrow=none;html=1;rounded=0;" edge="1" parent="1">
          <mxGeometry width="50" height="50" relative="1" as="geometry">
            <mxPoint x="400" y="1120" as="sourcePoint" />
            <mxPoint x="400" y="750" as="targetPoint" />
          </mxGeometry>
        </mxCell>
        <mxCell id="2RFHY5OYMMgToOVHw-5j-70" value="" style="endArrow=none;html=1;rounded=0;" edge="1" parent="1">
          <mxGeometry width="50" height="50" relative="1" as="geometry">
            <mxPoint x="400" y="749.41" as="sourcePoint" />
            <mxPoint x="580" y="749" as="targetPoint" />
          </mxGeometry>
        </mxCell>
      </root>
    </mxGraphModel>
  </diagram>
</mxfile>
